<?xml version="1.0" standalone="no"?><!DOCTYPE svg PUBLIC "-//W3C//DTD SVG 1.1//EN" "http://www.w3.org/Graphics/SVG/1.1/DTD/svg11.dtd"><svg t="1579183870865" class="icon" viewBox="0 0 1024 1024" version="1.1" xmlns="http://www.w3.org/2000/svg" p-id="13624" xmlns:xlink="http://www.w3.org/1999/xlink" width="32" height="32"><defs><style type="text/css"></style></defs><path d="M120 230h496c4.4 0 8-3.6 8-8v-56c0-4.4-3.6-8-8-8H120c-4.4 0-8 3.6-8 8v56c0 4.4 3.6 8 8 8zM120 654h496c4.4 0 8-3.6 8-8v-56c0-4.4-3.6-8-8-8H120c-4.4 0-8 3.6-8 8v56c0 4.4 3.6 8 8 8zM904 794H120c-4.4 0-8 3.6-8 8v56c0 4.4 3.6 8 8 8h784c4.4 0 8-3.6 8-8v-56c0-4.4-3.6-8-8-8zM904 370H120c-4.4 0-8 3.6-8 8v56c0 4.4 3.6 8 8 8h784c4.4 0 8-3.6 8-8v-56c0-4.4-3.6-8-8-8z" p-id="13625"></path></svg>