<?xml version="1.0" standalone="no"?><!DOCTYPE svg PUBLIC "-//W3C//DTD SVG 1.1//EN" "http://www.w3.org/Graphics/SVG/1.1/DTD/svg11.dtd"><svg t="1577613378660" class="icon" viewBox="0 0 1024 1024" version="1.1" xmlns="http://www.w3.org/2000/svg" p-id="13226" xmlns:xlink="http://www.w3.org/1999/xlink" width="32" height="32"><defs><style type="text/css"></style></defs><path d="M696 480H544V328c0-4.4-3.6-8-8-8h-48c-4.4 0-8 3.6-8 8v152H328c-4.4 0-8 3.6-8 8v48c0 4.4 3.6 8 8 8h152v152c0 4.4 3.6 8 8 8h48c4.4 0 8-3.6 8-8V544h152c4.4 0 8-3.6 8-8v-48c0-4.4-3.6-8-8-8z" p-id="13227"></path><path d="M512 64C264.6 64 64 264.6 64 512s200.6 448 448 448 448-200.6 448-448S759.4 64 512 64z m0 820c-205.4 0-372-166.6-372-372s166.6-372 372-372 372 166.6 372 372-166.6 372-372 372z" p-id="13228"></path></svg>