<?xml version="1.0" standalone="no"?><!DOCTYPE svg PUBLIC "-//W3C//DTD SVG 1.1//EN" "http://www.w3.org/Graphics/SVG/1.1/DTD/svg11.dtd"><svg t="1579594240699" class="icon" viewBox="0 0 1024 1024" version="1.1" xmlns="http://www.w3.org/2000/svg" p-id="31199" xmlns:xlink="http://www.w3.org/1999/xlink" width="32" height="32"><defs><style type="text/css"></style></defs><path d="M158.8 478.9c-27.8 0-49.8-21.4-50.4-49.2-0.3-14 4.6-26.9 13.8-36.5 9.1-9.5 21.7-14.8 35.4-15.1 28.8-0.6 51 20.6 51.5 49.1 0.6 28.8-20.5 51.1-49.1 51.7h-1.2z m-0.9-77c-7.4 0.1-14 2.9-18.7 7.8-4.8 5-7.3 11.9-7.1 19.5 0.3 15.1 11.5 25.9 26.6 25.9h0.7c15.2-0.3 26.1-11.9 25.7-27.4-0.2-15.5-11.4-26.1-27.2-25.8z" fill="#8C4D55" p-id="31200"></path><path d="M248 288.8c-27.4 0-54.7 0.1-82.1-0.1-6.8 0-16.6 1.5-16.9-7.6-0.4-11.2 10.5-8.9 17.4-9 54.7-0.3 109.4-0.2 164.1-0.1 6.1 0 14.7-1.1 15 7.6 0.4 10.1-8.8 9-15.5 9.1-27.3 0.2-54.7 0.1-82 0.1z" fill="#E5BB54" p-id="31201"></path><path d="M178.5 347h-64.8c-5.6 0-12.7 1-13.1-7.1-0.4-8.1 6.5-8 12.3-8h133.4c5.7 0 13-0.5 13.1 7.3 0.1 9.6-8.2 7.8-14.2 7.8-22.3 0.1-44.5 0-66.7 0z" fill="#E5B747" p-id="31202"></path><path d="M796.8 336.5c-5.1 0-9.7-3.3-11.3-8.2-10.5-32-28.6-50.7-60.5-62.5-4.6-1.7-7.7-6.1-7.8-11.1 0-5 3-9.4 7.6-11.2 32.3-12.5 50.3-30.9 60.1-61.6 1.5-4.8 6-8.2 11.1-8.3 5-0.1 9.7 3 11.4 7.8 12 32.3 30.7 51.1 60.7 61 4.7 1.6 8 5.9 8.2 10.9 0.2 5-2.8 9.6-7.4 11.4-33 13.5-51.1 32.4-60.7 63.4-1.5 5-6.1 8.4-11.3 8.4h-0.1z m-40-82.1c17.2 10.1 30.2 23.2 39.9 40.3 9.5-16.5 22.6-29.8 39.8-40.4-16.6-9.6-29.7-22.8-39.9-40-9.5 16.6-22.6 29.8-39.8 40.1z" fill="#EC8092" p-id="31203"></path><path d="M876.8 343c-1.4 7.2-5.4 12-12.6 11.9-7.1-0.2-12.2-4.5-12.1-11.8 0-8 5-12.9 13.3-12.4 7.4 0.3 10.3 5.9 11.4 12.3zM824.6 370.5c8.2 1.7 14.3 4.2 14.3 13.2 0 8.3-3.6 12.9-12.3 13.4-8.9 0.5-13-4.8-13.7-12.3-0.7-8.4 5.8-11.7 11.7-14.3z" fill="#EC8092" p-id="31204"></path><path d="M212.3 663.4v92.1l23-0.5 636.8-14.1 9.9-103.3z" fill="#FFFDF4" p-id="31205"></path><path d="M212.3 771.4c-4.1 0-8.1-1.6-11.1-4.5-3.1-3-4.8-7.1-4.8-11.4v-92.2c0-8.5 6.7-15.5 15.3-15.9l669.7-25.8c4.6-0.2 9 1.6 12.2 5 3.1 3.3 4.7 7.9 4.3 12.4L888 742.3c-0.8 8-7.4 14.2-15.5 14.4l-659.8 14.7h-0.4z m15.9-92.8v60.6l629.4-14 6.8-71.1-636.2 24.5z" fill="#83394A" p-id="31206"></path><path d="M430.1 261.2L203.9 506.3l651.4-37.7z" fill="#EFD080" p-id="31207"></path><path d="M203.9 522.2c-6.1 0-11.7-3.5-14.4-9.1-2.8-5.9-1.7-12.8 2.7-17.6l226.2-245.1c4.8-5.2 12.3-6.6 18.6-3.5l425.2 207.4c6.5 3.2 10 10.3 8.6 17.4-1.4 7.1-7.4 12.3-14.7 12.7l-651.4 37.7c-0.2 0.1-0.5 0.1-0.8 0.1z m229.9-241.5L242.3 488.1l551.4-31.9-359.9-175.5z" fill="#83394A" p-id="31208"></path><path d="M203.9 579.6h651.4s79.6-4.2 50.3 35.6-50.3 23-50.3 23-12.6 50.3-62.8 20.9c0 0-60.7 67-83.8-6.3 0 0-44 77.5-81.7 14.7 0 0-45.9 52.4-69-4.2 0 0-48.3 50.3-81.8 4.2 0 0-31.4 104.7-90.1 8.4 0 0-44 60.7-71.2-4.2 0 0-85.9 44.8-67-23.7 0 0-69.1 21.6-71.2-22.4 0 0.1-88-46 27.2-46z" fill="#45CE99" p-id="31209"></path><path d="M433.1 732.6c-16.8 0-32.9-10.3-48.9-31.3-10.3 9-25.1 18-41.8 16.1-13.8-1.6-25.4-9.9-34.6-24.8-19 7.8-48.3 15.9-66.1 1.6-7.6-6.1-11.7-14.8-12.3-26-15.9 2-36.5 1.9-51.1-8.3-6.1-4.3-13.3-11.7-16.2-24.1-16.8-9.9-37.5-26.5-32.7-45.9 5.7-23 39.2-26.2 74.6-26.2h651c2.5-0.1 13.9-0.5 26.5 1 22.6 2.6 36.8 9.6 43.2 21.5 4.3 7.9 6.6 21-6.2 38.5-14.4 19.6-29.8 30.6-45.7 32.7-3 0.4-5.7 0.4-8.3 0.3-4.7 8.3-12.5 17.9-24.9 23.1-13.1 5.5-27.9 4.8-44-2.1-12.8 11.4-37.3 29-62.1 23.6-11-2.4-20.1-8.7-27.5-18.7-11 12.1-26.8 24.4-45.4 24.6h-0.5c-13.1 0-24.9-5.7-35.3-16.9-10.9 8.2-26.8 16.7-43.8 13.9-8-1.3-18.3-5.6-27.4-17.3-11.6 8-28.5 16.4-47.1 15.1-6.8-0.5-15.5-2.4-24.4-8-8.4 16-22.6 34.8-43.6 37.5-1.9 0-3.7 0.1-5.4 0.1z m-47-72.5h0.7c5.3 0.2 10.1 3.1 12.9 7.6 19.6 32.3 31.5 33.5 34.6 33.1 10.3-1.3 22.1-22.8 26.6-37.8 1.8-5.8 6.6-10.1 12.6-11.1 5.9-1 11.9 1.4 15.5 6.3 5.9 8.1 12.3 12.3 19.5 12.8 15.2 1.1 32.6-13.2 38-18.7 3.7-3.8 9.2-5.6 14.4-4.5 5.3 1 9.7 4.6 11.7 9.6 2.3 5.6 7.1 15.2 13.5 16.3 8.9 1.5 23.2-10 28.9-16.5 3.3-3.8 8.3-5.8 13.4-5.4 5.1 0.5 9.6 3.3 12.2 7.7 4.6 7.7 11.7 16.9 19.4 16.9h0.1c11.6-0.1 27.6-18.7 34.8-31.2 3.1-5.5 9.2-8.6 15.5-7.9 6.3 0.7 11.6 5 13.5 11 3 9.5 8.2 21.1 16.3 22.9 12.6 2.8 33.1-14.3 40.6-22.5 5-5.6 13.3-6.8 19.8-3.1 7.7 4.5 18.6 9.2 26.5 5.9 9.1-3.8 12.9-17 13-17.1 1.4-5.6 5-10.7 10.6-12.2 5.5-1.4 10.5-0.5 14.4 3.4 4.2 1.8 14.8-1.9 27.9-19.7 1.7-2.4 2.6-4 3-5-5.6-3.6-23.7-6.1-39.7-5.3H203.9c-21.2 0-32.9 1.7-39.1 3.2 4.8 4.1 12.2 9.3 19.3 13 5 2.6 8.2 7.7 8.5 13.3 0.3 6.4 2.7 8.1 3.9 8.9 9.1 6.4 33.3 3.2 46.7-0.9 5.5-1.7 11.6-0.3 15.8 3.8s5.8 10 4.3 15.6c-3.1 11.3-2.1 16.3-1.5 17.2 4.2 3.1 26.3-1.7 45.8-11.9 3.9-2 8.6-2.4 12.7-0.8 4.2 1.5 7.5 4.7 9.3 8.8 5.1 12.2 11.1 19.6 16.4 20.2 7.9 0.9 21-10.6 27.3-19.2 3-4.3 7.8-6.7 12.8-6.7z" fill="#83394A" p-id="31210"></path><path d="M239.5 830.9l-4.2-75.9 605.4-13.4v62.1z" fill="#FFB56C" p-id="31211"></path><path d="M239.5 846.8c-8.4 0-15.4-6.6-15.9-15l-4.2-75.9c-0.2-4.3 1.3-8.5 4.2-11.7 2.9-3.2 7-5 11.3-5.1l605.4-13.5h0.4c4.1 0 8.1 1.6 11.1 4.5 3.1 3 4.8 7.1 4.8 11.4v62.1c0 8.5-6.7 15.5-15.2 15.9l-601.2 27.2c-0.2 0.1-0.4 0.1-0.7 0.1z m12.6-76.3l2.4 43.8 570.3-25.8v-30.7l-572.7 12.7z" fill="#83394A" p-id="31212"></path><path d="M203.9 506.3v73.3h651.4v-111z" fill="#FFBC80" p-id="31213"></path><path d="M855.3 595.5H203.9c-8.8 0-15.9-7.1-15.9-15.9v-73.3c0-8.4 6.6-15.4 15-15.9l651.4-37.7c4.4-0.3 8.6 1.3 11.8 4.3s5 7.2 5 11.6v111c0 8.8-7.1 15.9-15.9 15.9z m-635.5-31.8h619.6v-78.3l-619.6 35.9v42.4z" fill="#83394A" p-id="31214"></path></svg>